<?xml version="1.0" encoding="UTF-8"?>
<!DOCTYPE svg PUBLIC "-//W3C//DTD SVG 1.1//EN" "http://www.w3.org/Graphics/SVG/1.1/DTD/svg11.dtd">
<svg xmlns="http://www.w3.org/2000/svg" version="1.1" width="512px" height="512px" style="shape-rendering:geometricPrecision; text-rendering:geometricPrecision; image-rendering:optimizeQuality; fill-rule:evenodd; clip-rule:evenodd" xmlns:xlink="http://www.w3.org/1999/xlink">
<g><path style="opacity:0.982" fill="#010000" d="M 146.5,-0.5 C 237.167,-0.5 327.833,-0.5 418.5,-0.5C 434.943,4.78891 443.776,16.1222 445,33.5C 445.667,107.5 445.667,181.5 445,255.5C 444.69,261.642 441.523,264.975 435.5,265.5C 430.135,265.304 426.635,262.638 425,257.5C 424.5,233.502 424.333,209.502 424.5,185.5C 330.001,184.501 235.335,184.167 140.5,184.5C 140.167,265.335 140.501,346.002 141.5,426.5C 142.572,432.073 145.905,435.573 151.5,437C 238.833,437.667 326.167,437.667 413.5,437C 418.573,435.594 422.073,432.428 424,427.5C 424.333,398.833 424.667,370.167 425,341.5C 427.569,337.764 431.069,335.43 435.5,334.5C 441.154,335.324 444.321,338.657 445,344.5C 445.667,370.833 445.667,397.167 445,423.5C 443.973,440.858 435.14,452.025 418.5,457C 409.173,457.5 399.839,457.666 390.5,457.5C 390.666,466.839 390.5,476.173 390,485.5C 385.983,498.682 377.483,507.349 364.5,511.5C 273.833,511.5 183.167,511.5 92.5,511.5C 76.057,506.211 67.2237,494.878 66,477.5C 65.3333,347.5 65.3333,217.5 66,87.5C 67.0165,70.1501 75.8499,58.9835 92.5,54C 101.827,53.5002 111.161,53.3335 120.5,53.5C 120.334,44.1607 120.5,34.8274 121,25.5C 125.017,12.3175 133.517,3.65084 146.5,-0.5 Z"/></g>
<g><path style="opacity:1" fill="#fe7c96" d="M 150.5,19.5 C 238.501,19.3333 326.501,19.5 414.5,20C 419,21.8333 422.167,25 424,29.5C 424.5,74.4988 424.667,119.499 424.5,164.5C 329.833,164.5 235.167,164.5 140.5,164.5C 140.333,119.499 140.5,74.4988 141,29.5C 143.022,24.98 146.189,21.6467 150.5,19.5 Z"/></g>
<g><path style="opacity:1" fill="#030101" d="M 232.5,39.5 C 239.906,38.7823 245.073,41.7823 248,48.5C 257.667,74.1667 267.333,99.8333 277,125.5C 277.849,132.991 274.515,137.324 267,138.5C 264.516,138.174 262.349,137.174 260.5,135.5C 258.038,130.743 255.705,125.91 253.5,121C 241.819,120.167 230.152,120.334 218.5,121.5C 216.764,125.874 214.931,130.207 213,134.5C 206.464,140.352 200.797,139.686 196,132.5C 195.333,129.5 195.333,126.5 196,123.5C 205.863,98.2448 215.53,72.9114 225,47.5C 227.028,44.3078 229.528,41.6411 232.5,39.5 Z"/></g>
<g><path style="opacity:1" fill="#060303" d="M 356.5,53.5 C 363.206,52.5587 367.706,55.2254 370,61.5C 370.667,84.5 370.667,107.5 370,130.5C 364.353,140.194 357.853,140.86 350.5,132.5C 331.328,142.578 314.162,139.911 299,124.5C 286.751,107.368 286.418,90.0343 298,72.5C 313.019,56.4106 330.519,53.0773 350.5,62.5C 350.932,58.4103 352.932,55.4103 356.5,53.5 Z"/></g>
<g><path style="opacity:1" fill="#fecc68" d="M 96.5,73.5 C 104.5,73.5 112.5,73.5 120.5,73.5C 120.5,121.833 120.5,170.167 120.5,218.5C 109.167,218.5 97.8333,218.5 86.5,218.5C 86.3333,173.499 86.5,128.499 87,83.5C 89.0223,78.98 92.189,75.6467 96.5,73.5 Z"/></g>
<g><path style="opacity:1" fill="#f67992" d="M 245.5,99.5 C 239.355,100.49 233.022,100.823 226.5,100.5C 229.562,92.1514 232.728,83.818 236,75.5C 239.853,83.2244 243.019,91.2244 245.5,99.5 Z"/></g>
<g><path style="opacity:1" fill="#fb7b94" d="M 324.5,77.5 C 342.521,77.0186 350.688,85.6852 349,103.5C 343.946,116.193 334.779,120.693 321.5,117C 309.945,109.966 306.778,100.133 312,87.5C 315.191,82.8366 319.358,79.5032 324.5,77.5 Z"/></g>
<g><path style="opacity:1" fill="#542931" d="M 245.5,99.5 C 246.043,99.56 246.376,99.8933 246.5,100.5C 239.678,101.818 233.011,101.818 226.5,100.5C 233.022,100.823 239.355,100.49 245.5,99.5 Z"/></g>
<g><path style="opacity:1" fill="#d1d1d1" d="M 424.5,185.5 C 330.167,185.5 235.833,185.5 141.5,185.5C 141.5,265.833 141.5,346.167 141.5,426.5C 140.501,346.002 140.167,265.335 140.5,184.5C 235.335,184.167 330.001,184.501 424.5,185.5 Z"/></g>
<g><path style="opacity:0.999" fill="#fefefe" d="M 424.5,185.5 C 424.333,209.502 424.5,233.502 425,257.5C 426.635,262.638 430.135,265.304 435.5,265.5C 435.5,273.5 435.5,281.5 435.5,289.5C 423.406,292.896 421.406,299.396 429.5,309C 431.345,310.128 433.345,310.628 435.5,310.5C 435.5,318.5 435.5,326.5 435.5,334.5C 431.069,335.43 427.569,337.764 425,341.5C 424.667,370.167 424.333,398.833 424,427.5C 422.073,432.428 418.573,435.594 413.5,437C 326.167,437.667 238.833,437.667 151.5,437C 145.905,435.573 142.572,432.073 141.5,426.5C 141.5,346.167 141.5,265.833 141.5,185.5C 235.833,185.5 330.167,185.5 424.5,185.5 Z"/></g>
<g><path style="opacity:1" fill="#030303" d="M 246.5,204.5 C 275.433,203.94 293.599,217.607 301,245.5C 301.499,249.152 301.665,252.818 301.5,256.5C 337.784,255.73 359.951,273.064 368,308.5C 371.03,347.091 358.53,379.591 330.5,406C 315.761,416.984 299.595,419.818 282,414.5C 264.113,420.189 247.946,417.023 233.5,405C 204.603,377.603 192.77,344.103 198,304.5C 203.811,280.857 218.311,265.524 241.5,258.5C 239.056,252.672 236.889,246.672 235,240.5C 232.387,230.132 233.387,220.132 238,210.5C 240.322,207.605 243.155,205.605 246.5,204.5 Z"/></g>
<g><path style="opacity:1" fill="#85d98b" d="M 253.5,224.5 C 272.688,227.69 282.021,239.023 281.5,258.5C 261.849,255.939 252.515,244.606 253.5,224.5 Z"/></g>
<g><path style="opacity:1" fill="#dfe8ed" d="M 86.5,238.5 C 97.8333,238.5 109.167,238.5 120.5,238.5C 120.333,301.501 120.5,364.501 121,427.5C 123.949,443.116 133.116,452.95 148.5,457C 222.499,457.5 296.499,457.667 370.5,457.5C 370.666,465.174 370.5,472.841 370,480.5C 368.594,485.573 365.428,489.073 360.5,491C 272.5,491.667 184.5,491.667 96.5,491C 92,489.167 88.8333,486 87,481.5C 86.5,400.501 86.3333,319.501 86.5,238.5 Z"/></g>
<g><path style="opacity:1" fill="#fd7c96" d="M 247.5,276.5 C 254.508,276.334 261.508,276.5 268.5,277C 277.806,281.611 287.139,281.611 296.5,277C 323.284,272.81 340.451,283.644 348,309.5C 350.512,335.79 343.845,359.457 328,380.5C 320.837,390.162 311.337,395.828 299.5,397.5C 293.721,396.185 287.888,395.185 282,394.5C 277.923,394.273 274.09,395.107 270.5,397C 260.998,398.087 252.665,395.421 245.5,389C 223.937,367.317 214.437,341.15 217,310.5C 220.737,293.269 230.903,281.936 247.5,276.5 Z"/></g>
<g><path style="opacity:0.944" fill="#050505" d="M 435.5,289.5 C 444.818,292.77 447.152,298.77 442.5,307.5C 440.754,309.854 438.421,310.854 435.5,310.5C 433.345,310.628 431.345,310.128 429.5,309C 421.406,299.396 423.406,292.896 435.5,289.5 Z"/></g>
</svg>
